<svg width="227" height="66" viewBox="0 0 227 66" fill="none" xmlns="http://www.w3.org/2000/svg">
<path d="M48.7878 33.212C49.4387 34.0799 50.0059 35.0075 50.4819 35.9823C51.267 37.6333 51.8492 39.3733 52.2158 41.1642C52.5148 42.4796 52.734 43.8149 52.9931 45.1503C53.0023 45.2431 53.0023 45.3365 52.9931 45.4293C53.0105 45.6117 52.9644 45.7945 52.8628 45.947C52.7612 46.0994 52.6101 46.2122 52.4351 46.2664L48.5885 47.6814C47.1837 48.1483 45.7344 48.4689 44.2636 48.6381C43.5063 48.6381 42.7689 48.6381 42.0115 48.7377C41.6329 48.7377 41.2342 48.7377 40.8556 48.7377C40.5135 48.7706 40.1845 48.8856 39.8965 49.073C39.6085 49.2604 39.37 49.5146 39.2014 49.814C38.9821 50.1528 38.8028 50.4916 38.6035 50.8503C37.6458 52.5556 36.4212 54.0964 34.9761 55.4144C33.8999 56.3909 32.7838 57.2878 31.6677 58.2245C31.5028 58.3538 31.2993 58.4241 31.0897 58.4241C30.8802 58.4241 30.6767 58.3538 30.5118 58.2245C29.1193 57.144 27.7885 55.9863 26.5257 54.7567C25.1296 53.4541 23.9461 51.941 23.018 50.2723C22.823 49.8609 22.5448 49.4944 22.2008 49.1961C21.7093 48.8439 21.11 48.6746 20.5068 48.7178H19.0319C17.2997 48.6543 15.5838 48.3594 13.9298 47.8409C12.435 47.4024 10.9602 46.8443 9.50526 46.2664C9.30216 46.1787 9.14203 46.0141 9.05987 45.8087C8.97771 45.6033 8.9802 45.3738 9.0668 45.1702C9.4059 42.7838 9.94593 40.4303 10.6811 38.1348C11.2239 36.4291 12.0236 34.8161 13.0528 33.3516C13.0528 33.3516 13.1724 33.1921 13.0528 33.0925C11.6201 31.0963 10.5848 28.8431 10.0035 26.4557C9.58498 24.7417 9.2661 22.9878 9.0668 21.2539C9.0305 21.144 9.01736 21.0279 9.02822 20.9127C9.03907 20.7975 9.07368 20.6858 9.12986 20.5847C9.18604 20.4836 9.26258 20.3952 9.35463 20.3251C9.44669 20.2551 9.55227 20.2049 9.6647 20.1776C11.5231 19.3645 13.4422 18.6982 15.4046 18.1846C17.0008 17.7873 18.6431 17.6063 20.2875 17.6465C20.6518 17.6862 21.0194 17.6862 21.3837 17.6465C21.6704 17.6014 21.9438 17.4942 22.1848 17.3324C22.4258 17.1706 22.6285 16.9581 22.7788 16.7098C23.0379 16.3112 23.2571 15.8926 23.4963 15.4741C24.3961 13.9353 25.5026 12.5271 26.7848 11.2887C27.9382 10.1891 29.149 9.15125 30.4121 8.17963C30.5747 8.06283 30.7699 8 30.9702 8C31.1704 8 31.3656 8.06283 31.5282 8.17963C33.2819 9.50919 34.9219 10.9825 36.4311 12.5842C37.4069 13.6376 38.2564 14.8015 38.9622 16.0521C39.1616 16.4283 39.4095 16.7768 39.6996 17.0885C39.94 17.3093 40.2234 17.4782 40.532 17.5845C40.8407 17.6909 41.1679 17.7323 41.4933 17.7063H42.7888C44.5669 17.768 46.3292 18.0628 48.0305 18.5832C49.5252 19.0217 50.9602 19.5598 52.3952 20.1378C52.6076 20.2227 52.7796 20.3855 52.8759 20.593C52.9722 20.8004 52.9856 21.0369 52.9134 21.2539C52.6211 23.1271 52.2286 24.9833 51.7375 26.8144C51.1871 29.0533 50.235 31.1737 48.9273 33.0725L48.7878 33.212ZM30.9901 56.8493L31.5481 56.3112L35.5342 52.3252C36.258 51.584 36.8934 50.7614 37.4276 49.8737C37.8773 49.0997 38.2003 48.2586 38.3842 47.3825C38.3937 47.2867 38.4229 47.194 38.47 47.1101C38.517 47.0261 38.5809 46.9529 38.6577 46.8948C38.7344 46.8368 38.8223 46.7953 38.9159 46.7729C39.0095 46.7505 39.1067 46.7477 39.2014 46.7646C39.3208 46.7551 39.4407 46.7551 39.5601 46.7646C40.2178 46.8643 40.8954 47.0237 41.5531 47.0835C42.5003 47.1338 43.45 47.0736 44.3832 46.9041C46.5503 46.5184 48.6782 45.9381 50.741 45.1702C50.8426 45.1458 50.938 45.1001 51.0206 45.036C51.1032 44.972 51.1713 44.8911 51.2203 44.7988C51.2693 44.7064 51.2981 44.6047 51.3048 44.5004C51.3115 44.396 51.296 44.2915 51.2592 44.1936C51.1197 43.5359 50.9602 42.8782 50.8207 42.2006C50.5122 40.6641 50.0925 39.1521 49.5651 37.6764C49.0609 36.1603 48.1916 34.7915 47.034 33.6904C46.9394 33.6265 46.862 33.5404 46.8085 33.4396C46.7549 33.3389 46.727 33.2265 46.727 33.1124C46.727 32.9983 46.7549 32.8859 46.8085 32.7852C46.862 32.6844 46.9394 32.5983 47.034 32.5344C47.3728 32.1757 47.7116 31.8369 48.0105 31.4582C48.7849 30.3909 49.3837 29.2067 49.7843 27.9505C50.3831 25.9839 50.882 23.9883 51.2791 21.9714C51.2951 21.8148 51.2561 21.6576 51.1688 21.5267C51.0815 21.3958 50.9514 21.2993 50.8008 21.2539L50.2228 21.0546C48.0056 20.1787 45.6899 19.5764 43.3269 19.2609C42.5393 19.1645 41.7429 19.1645 40.9552 19.2609L39.4405 19.5598C39.3326 19.597 39.2175 19.6086 39.1044 19.5938C38.9912 19.5789 38.883 19.538 38.7884 19.4743C38.6937 19.4105 38.6151 19.3256 38.5588 19.2264C38.5025 19.1271 38.4701 19.0161 38.4639 18.9021C38.2933 18.1373 38.0184 17.3997 37.6468 16.7098C36.9999 15.5953 36.2018 14.5758 35.2751 13.6804C34.0992 12.4846 32.9034 11.3286 31.7076 10.1727C31.4883 9.93349 31.2492 9.73419 31.03 9.51496L30.8506 9.65447L29.3558 11.1094C28.16 12.2653 26.9243 13.4213 25.8282 14.6968C24.9764 15.6079 24.3007 16.6688 23.8351 17.8259C23.7012 18.2047 23.5881 18.5906 23.4963 18.9818C23.4714 19.1599 23.3788 19.3215 23.2377 19.4329C23.0966 19.5443 22.9179 19.5969 22.739 19.5797C22.6069 19.6006 22.4724 19.6006 22.3404 19.5797C21.0383 19.2516 19.6863 19.1705 18.3543 19.3406C16.9636 19.5072 15.5899 19.7939 14.2487 20.1976C13.2721 20.4965 12.2556 20.8154 11.3388 21.1542C11.2269 21.1698 11.1201 21.2109 11.0266 21.2743C10.9331 21.3378 10.8554 21.4219 10.7995 21.5201C10.7437 21.6183 10.7111 21.7281 10.7044 21.8409C10.6977 21.9537 10.717 22.0665 10.7609 22.1707C10.9004 22.9081 11.0798 23.6455 11.2392 24.3829C11.5551 26.0322 12.0085 27.6522 12.5945 29.226C13.1392 30.5465 13.9775 31.7256 15.0459 32.6739C15.1288 32.7392 15.1958 32.8224 15.2419 32.9174C15.288 33.0123 15.3119 33.1165 15.3119 33.222C15.3119 33.3275 15.288 33.4317 15.2419 33.5266C15.1958 33.6216 15.1288 33.7048 15.0459 33.7701C14.7449 34.054 14.4588 34.3534 14.1889 34.667C13.3589 35.7259 12.7307 36.9284 12.3354 38.2145C11.6892 40.2344 11.1634 42.2908 10.7609 44.373C10.7121 44.52 10.7151 44.6793 10.7695 44.8244C10.8239 44.9695 10.9264 45.0915 11.0598 45.1702H11.3189L12.2357 45.4891C14.4176 46.3438 16.7027 46.9067 19.0319 47.1632C19.746 47.2628 20.4704 47.2628 21.1844 47.1632L22.5197 46.9041C22.6249 46.8668 22.7374 46.8545 22.8482 46.8682C22.959 46.8819 23.065 46.9213 23.1579 46.9832C23.2508 47.0452 23.3279 47.1279 23.3832 47.2249C23.4385 47.3219 23.4704 47.4304 23.4764 47.5419C23.6455 48.235 23.8999 48.9044 24.2337 49.5349C24.8344 50.6414 25.6006 51.6495 26.5058 52.5245C27.6617 53.7004 28.8376 54.8563 30.0135 56.0123L30.9901 56.8493Z" fill="black" stroke="black" stroke-miterlimit="10"/>
<path d="M37.9059 43.516H37.4076C37.2524 43.4865 37.0918 43.5122 36.9535 43.5886C36.8152 43.6651 36.7079 43.7874 36.6503 43.9345C36.3497 44.5647 35.9604 45.1486 35.4943 45.6685C34.502 46.7407 33.1437 47.4021 31.6876 47.522C30.6048 47.6619 29.5041 47.5388 28.4789 47.1632C27.1886 46.5985 26.1327 45.6059 25.4893 44.3531L25.3299 44.0342C25.2754 43.8794 25.1666 43.7496 25.0236 43.6689C24.8807 43.5883 24.7133 43.5623 24.5526 43.5957C23.9501 43.6658 23.3415 43.6658 22.739 43.5957C21.2341 43.311 19.9021 42.4445 19.0319 41.1842C18.3146 40.2569 17.854 39.1571 17.6966 37.9953C17.5436 36.9279 17.7101 35.8392 18.1749 34.8663C18.4134 34.3733 18.6795 33.8942 18.9721 33.4313C18.9997 33.3937 19.0145 33.3483 19.0145 33.3017C19.0145 33.2551 18.9997 33.2098 18.9721 33.1722C18.4071 32.3809 18.0009 31.4874 17.7763 30.5414C17.5181 29.4301 17.6157 28.2658 18.0553 27.213C18.4685 26.1044 19.1539 25.1175 20.0484 24.3431C21.1233 23.4389 22.4907 22.9572 23.8949 22.9878H24.5925C24.7502 23.0161 24.9128 22.9875 25.0514 22.9072C25.1901 22.827 25.2958 22.7002 25.3498 22.5494C25.6504 21.9144 26.047 21.3295 26.5257 20.8154C27.5067 19.742 28.862 19.0858 30.3125 18.9818C31.5986 18.8002 32.9089 19.0423 34.0452 19.6716C35.1815 20.3009 36.082 21.2831 36.6104 22.4696L36.73 22.6889C36.7857 22.7859 36.8676 22.8654 36.9662 22.9183C37.0649 22.9711 37.1764 22.9952 37.2881 22.9878H38.2846C39.2336 22.9922 40.1669 23.231 41.0013 23.683C41.8358 24.135 42.5457 24.7862 43.0678 25.5788C43.692 26.4293 44.1146 27.4107 44.3035 28.4487C44.482 29.641 44.2871 30.8594 43.7455 31.9365C43.5462 32.355 43.2871 32.7736 43.0479 33.1722C42.8087 33.5708 43.0479 33.3316 43.0479 33.4313C43.6074 34.2306 44.0067 35.1308 44.2238 36.082C44.4679 37.1351 44.3986 38.2367 44.0245 39.2509C43.6034 40.4476 42.8665 41.5081 41.8919 42.3202C40.7605 43.2051 39.3376 43.632 37.9059 43.516ZM42.7489 29.226C42.7489 29.226 42.7489 28.9071 42.7489 28.6879C42.7254 28.5068 42.6921 28.3272 42.6493 28.1498C42.3753 27.0354 41.7033 26.0596 40.7599 25.4062C39.8165 24.7528 38.6668 24.4669 37.5272 24.6022L36.451 24.7217C36.3132 24.7329 36.1753 24.7028 36.0546 24.6354C35.934 24.568 35.8361 24.4662 35.7734 24.3431C35.6573 24.1317 35.5574 23.9118 35.4744 23.6854C35.2305 23.0705 34.8796 22.5037 34.438 22.0112C33.9316 21.4434 33.2891 21.0137 32.5708 20.7627C31.8526 20.5117 31.0823 20.4475 30.3324 20.5763C29.5012 20.7082 28.7207 21.0607 28.0721 21.5971C27.4236 22.1334 26.9309 22.8339 26.6453 23.6256C26.6453 23.8448 26.446 24.084 26.3264 24.3032C26.2606 24.4353 26.1576 24.5453 26.0302 24.6196C25.9027 24.694 25.7563 24.7295 25.6089 24.7217H25.2302C24.655 24.6423 24.0716 24.6423 23.4963 24.7217C22.3838 24.8356 21.3468 25.3374 20.567 26.139C19.7872 26.9407 19.3143 27.9911 19.2312 29.1064C19.2027 30.2233 19.5777 31.313 20.2875 32.1757L20.8057 32.8932C20.8637 32.9894 20.8944 33.0997 20.8944 33.212C20.8944 33.3244 20.8637 33.4347 20.8057 33.5309C20.691 33.7181 20.5645 33.8978 20.427 34.069C19.8305 34.7191 19.4342 35.5274 19.2857 36.3971C19.1373 37.2667 19.2429 38.1608 19.59 38.9719C19.9613 39.9441 20.6485 40.7633 21.5412 41.2982C22.4339 41.8331 23.4804 42.0526 24.5128 41.9216L25.5292 41.802C25.6853 41.7877 25.842 41.8222 25.9776 41.9008C26.1133 41.9793 26.2212 42.098 26.2865 42.2405L26.5257 42.7188C26.7194 43.2461 26.9879 43.7428 27.3229 44.1936C27.8977 44.9454 28.6901 45.5018 29.5923 45.7871C30.4946 46.0724 31.4628 46.0727 32.3653 45.788C33.0648 45.5613 33.7032 45.1777 34.2317 44.6665C34.7602 44.1552 35.1648 43.5299 35.4146 42.8384C35.4939 42.6168 35.594 42.4033 35.7136 42.2006C35.7768 42.0721 35.877 41.9655 36.0013 41.8945C36.1256 41.8235 36.2683 41.7912 36.4111 41.802H36.7898C37.4495 41.9135 38.1232 41.9135 38.7828 41.802C39.6076 41.6506 40.3776 41.2833 41.0142 40.7375C41.6509 40.1917 42.1314 39.4868 42.4069 38.6948C42.6824 37.9027 42.743 37.0518 42.5825 36.2287C42.422 35.4056 42.0462 34.6398 41.4933 34.0093C41.3558 33.8312 41.2293 33.6448 41.1147 33.4512C41.0467 33.3588 41.01 33.2471 41.01 33.1323C41.01 33.0176 41.0467 32.9059 41.1147 32.8134C41.231 32.5989 41.3714 32.3983 41.5332 32.2155C42.2589 31.3815 42.6866 30.3298 42.7489 29.226Z" fill="black" stroke="black" stroke-width="0.75" stroke-miterlimit="10"/>
<path d="M40.0982 29.4851C40.0983 30.1671 39.8504 30.8259 39.4006 31.3386C39.1969 31.5799 39.0167 31.8402 38.8625 32.1159C38.6719 32.4461 38.5715 32.8207 38.5715 33.2021C38.5715 33.5834 38.6719 33.958 38.8625 34.2883C39.0122 34.5495 39.1856 34.7964 39.3807 35.0257C39.8571 35.5472 40.1129 36.233 40.0944 36.9392C40.0758 37.6453 39.7843 38.3167 39.2811 38.8124C39.0485 39.0782 38.7542 39.2826 38.424 39.4077C38.0938 39.5328 37.7379 39.5748 37.3877 39.5299C36.9492 39.5299 36.5108 39.4104 36.0723 39.4104C35.6447 39.3897 35.2194 39.4843 34.8407 39.6841C34.4621 39.8839 34.1441 40.1817 33.9198 40.5464C33.7422 40.8219 33.5952 41.1159 33.4814 41.4233C33.3461 41.8377 33.115 42.2143 32.8067 42.5225C32.4985 42.8307 32.1219 43.0618 31.7076 43.1971C31.1196 43.3601 30.4927 43.307 29.9406 43.0474C29.3884 42.7877 28.9476 42.3388 28.6981 41.7821C28.6981 41.6027 28.5586 41.4034 28.4789 41.224C28.2815 40.7306 27.9668 40.2928 27.5621 39.9485C27.0396 39.5313 26.3732 39.3379 25.7086 39.4104L24.6323 39.5299C24.2542 39.5743 23.871 39.5184 23.5212 39.368C23.1714 39.2176 22.8673 38.9779 22.6393 38.6729C22.3606 38.3439 22.1602 37.9559 22.0532 37.5382C21.9461 37.1205 21.9353 36.6839 22.0215 36.2614C22.1254 35.7877 22.3601 35.3526 22.6991 35.0058C23.113 34.5569 23.3836 33.9949 23.4764 33.3914C23.5126 32.9694 23.4225 32.5462 23.2173 32.1757C23.0611 31.9013 22.881 31.6412 22.6792 31.3984C22.441 31.1495 22.2549 30.8556 22.1317 30.5339C22.0085 30.2122 21.9507 29.8692 21.9617 29.5249C21.9671 29.078 22.0761 28.6384 22.2801 28.2407C22.4841 27.843 22.7776 27.498 23.1376 27.233C23.5574 26.9287 24.0793 26.8 24.5925 26.8742L25.6288 26.9938C26.1404 27.0629 26.6608 26.9739 27.1203 26.7388C27.5799 26.5036 27.9565 26.1337 28.1998 25.6784C28.3394 25.429 28.4594 25.1691 28.5586 24.9011C28.6991 24.4829 28.9424 24.1068 29.2663 23.8073C29.5902 23.5078 29.9842 23.2945 30.4121 23.1871C30.9557 23.0566 31.5272 23.1112 32.0362 23.3423C32.5453 23.5733 32.9626 23.9676 33.2223 24.4627L33.4614 25.0008C33.6359 25.5139 33.9296 25.9784 34.3184 26.356C34.6293 26.6249 34.9969 26.8201 35.3938 26.9271C35.7906 27.034 36.2065 27.05 36.6104 26.9739C37.0151 26.9443 37.4215 26.9443 37.8262 26.9739C38.122 26.9859 38.4114 27.0637 38.6734 27.2016C38.9355 27.3395 39.1635 27.534 39.3409 27.7711C39.7625 28.2516 40.0268 28.8498 40.0982 29.4851ZM24.5925 28.3092H24.2337C24.0679 28.3639 23.9153 28.4527 23.7857 28.5698C23.6561 28.6868 23.5524 28.8296 23.4811 28.9891C23.4098 29.1485 23.3726 29.321 23.3718 29.4957C23.371 29.6703 23.4066 29.8432 23.4764 30.0033C23.5644 30.157 23.6644 30.3036 23.7753 30.4417C24.0145 30.8204 24.2935 31.1792 24.5127 31.5977C24.8403 32.2073 24.9659 32.9052 24.8715 33.5907C24.7304 34.4431 24.3503 35.2379 23.7753 35.8827C23.6644 36.0208 23.5644 36.1674 23.4764 36.3212C23.4033 36.4808 23.3652 36.6542 23.3644 36.8298C23.3637 37.0054 23.4003 37.1791 23.472 37.3394C23.5437 37.4997 23.6487 37.6429 23.78 37.7594C23.9114 37.876 24.066 37.9632 24.2337 38.0152C24.5046 38.0551 24.7799 38.0551 25.0509 38.0152C25.601 37.8983 26.1692 37.8946 26.7208 38.0042C27.2725 38.1138 27.796 38.3346 28.2596 38.653C28.9953 39.194 29.5509 39.9441 29.8541 40.8055C29.92 40.994 30.0069 41.1745 30.1131 41.3436C30.211 41.4794 30.3397 41.59 30.4887 41.6663C30.6377 41.7426 30.8027 41.7824 30.9701 41.7824C31.1375 41.7824 31.3025 41.7426 31.4515 41.6663C31.6005 41.59 31.7293 41.4794 31.8271 41.3436C31.961 41.1388 32.0682 40.9178 32.146 40.6859C32.3401 40.1343 32.6454 39.6286 33.0431 39.2C33.4408 38.7714 33.9224 38.4292 34.4579 38.1946C35.2939 37.8609 36.212 37.7914 37.0887 37.9953C37.39 38.0823 37.7134 38.0476 37.9893 37.8984C38.2651 37.7493 38.4714 37.4978 38.5636 37.1981C38.6186 36.9834 38.6201 36.7585 38.568 36.543C38.5159 36.3276 38.4117 36.1282 38.2646 35.9624C38.0164 35.66 37.7899 35.3403 37.587 35.0058C37.3039 34.5397 37.1348 34.0135 37.0932 33.4698C37.0517 32.9262 37.1389 32.3804 37.3478 31.8767C37.5654 31.3566 37.8611 30.8727 38.2248 30.4417C38.3466 30.2973 38.4472 30.1362 38.5237 29.9634C38.5862 29.8069 38.6154 29.6392 38.6096 29.4708C38.6038 29.3025 38.563 29.1372 38.49 28.9854C38.4169 28.8336 38.313 28.6986 38.1851 28.5891C38.0571 28.4796 37.9077 28.3978 37.7464 28.3491C37.4696 28.2994 37.1862 28.2994 36.9094 28.3491C36.3384 28.4677 35.7489 28.4652 35.179 28.3416C34.6091 28.218 34.0715 27.9761 33.6009 27.6316C32.8965 27.0776 32.3699 26.3292 32.0862 25.4791C32.0403 25.3245 31.9732 25.1769 31.8869 25.0406C31.7888 24.8926 31.6555 24.7712 31.499 24.6872C31.3425 24.6033 31.1677 24.5593 30.9901 24.5593C30.8125 24.5593 30.6376 24.6033 30.4811 24.6872C30.3247 24.7712 30.1914 24.8926 30.0932 25.0406C29.997 25.2122 29.9169 25.3923 29.8541 25.5788C29.5667 26.5006 28.9635 27.2917 28.1507 27.8129C27.3379 28.3342 26.3673 28.5522 25.4096 28.4288L24.5925 28.3092Z" fill="black" stroke="black" stroke-width="0.25" stroke-miterlimit="10"/>
<path d="M35.0957 33.212C35.0659 34.1169 34.7364 34.9861 34.159 35.6834C33.5623 36.4531 32.7045 36.9777 31.7474 37.1582C31.0581 37.2953 30.3447 37.2477 29.6797 37.0202C29.0147 36.7927 28.4216 36.3934 27.9607 35.8628C27.279 35.1458 26.8883 34.201 26.8645 33.212C26.8754 32.5022 27.0898 31.8105 27.4824 31.219C27.8197 30.6337 28.3003 30.1436 28.8791 29.795C29.4578 29.4464 30.1156 29.2506 30.7908 29.226C31.4312 29.1936 32.0699 29.3162 32.6528 29.5834C33.2357 29.8505 33.7456 30.2544 34.1391 30.7606C34.6822 31.3852 35.0105 32.1677 35.0758 32.9928C35.0901 33.065 35.0967 33.1385 35.0957 33.212ZM31.1097 35.6635C31.5625 35.6233 31.9966 35.4639 32.3678 35.2013C32.7389 34.9387 33.0338 34.5824 33.2223 34.1687C33.4086 33.8568 33.4923 33.4943 33.4614 33.1323C33.4215 32.6398 33.2405 32.1691 32.9401 31.7768C32.6396 31.3844 32.2325 31.087 31.7674 30.9201C31.3478 30.7479 30.8864 30.7053 30.4424 30.7977C29.9984 30.89 29.5922 31.1131 29.2761 31.4382C28.9834 31.676 28.7539 31.9822 28.6078 32.3299C28.4618 32.6775 28.4038 33.0558 28.439 33.4313C28.5447 34.0681 28.8776 34.6451 29.3759 35.0554C29.8742 35.4658 30.5043 35.6818 31.1495 35.6635H31.1097Z" fill="black" stroke="black" stroke-width="0.5" stroke-miterlimit="10"/>
<path d="M76.544 38.136C76.544 36.664 76.576 35.528 76.64 34.728C75.68 34.856 74.976 34.952 74.528 35.016C74.112 35.08 73.536 35.176 72.8 35.304C72.064 35.432 71.52 35.576 71.168 35.736C70.848 35.896 70.496 36.088 70.112 36.312C69.728 36.536 69.456 36.824 69.296 37.176C69.136 37.496 69.056 37.88 69.056 38.328C69.056 39.608 69.376 40.552 70.016 41.16C70.656 41.768 71.472 42.072 72.464 42.072C74.096 42.072 75.488 41.464 76.64 40.248C76.576 39.832 76.544 39.128 76.544 38.136ZM76.736 31.8C76.736 30.712 76.704 29.88 76.64 29.304C76.608 28.728 76.48 28.072 76.256 27.336C76.064 26.6 75.712 26.072 75.2 25.752C74.72 25.4 74.064 25.224 73.232 25.224C72.176 25.224 71.168 25.576 70.208 26.28C69.28 26.952 68.608 27.896 68.192 29.112C65.344 29.08 63.92 28.232 63.92 26.568C63.92 25.192 64.88 24.04 66.8 23.112C68.752 22.184 70.96 21.72 73.424 21.72C76.368 21.72 78.512 22.328 79.856 23.544C81.232 24.76 81.92 26.936 81.92 30.072C81.92 30.168 81.904 30.92 81.872 32.328C81.84 33.736 81.824 35.112 81.824 36.456C81.824 40.104 82.128 42.84 82.736 44.664C81.808 45.016 80.896 45.192 80 45.192C78.208 45.192 77.136 44.456 76.784 42.984C74.864 44.648 72.704 45.48 70.304 45.48C68.448 45.48 66.896 44.904 65.648 43.752C64.432 42.6 63.824 40.904 63.824 38.664C63.824 36.872 64.208 35.544 64.976 34.68C65.744 33.816 66.768 33.176 68.048 32.76C69.968 32.152 72.864 31.832 76.736 31.8ZM100.234 28.632C99.5939 26.552 97.8179 25.512 94.9059 25.512C94.0739 25.512 93.3539 25.752 92.7459 26.232C92.1379 26.68 91.8339 27.304 91.8339 28.104C91.8339 29.064 92.2499 29.816 93.0819 30.36C93.9459 30.904 94.9859 31.304 96.2019 31.56C97.4179 31.816 98.6339 32.12 99.8499 32.472C101.066 32.824 102.09 33.48 102.922 34.44C103.786 35.4 104.218 36.68 104.218 38.28C104.218 40.616 103.29 42.408 101.434 43.656C99.6099 44.872 97.4499 45.48 94.9539 45.48C92.7459 45.48 90.7939 45.112 89.0979 44.376C87.4019 43.64 86.5539 42.728 86.5539 41.64C86.5539 40.264 87.5459 39.16 89.5299 38.328C90.4899 40.568 92.5699 41.688 95.7699 41.688C98.2019 41.688 99.4179 40.872 99.4179 39.24C99.4179 38.28 98.9859 37.56 98.1219 37.08C97.2899 36.568 96.2659 36.2 95.0499 35.976C93.8339 35.72 92.6179 35.4 91.4019 35.016C90.1859 34.632 89.1459 33.928 88.2819 32.904C87.4499 31.88 87.0339 30.504 87.0339 28.776C87.0339 26.472 87.9459 24.728 89.7699 23.544C91.6259 22.328 93.8019 21.72 96.2979 21.72C97.2579 21.72 98.2499 21.832 99.2739 22.056C100.33 22.248 101.338 22.68 102.298 23.352C103.29 23.992 103.786 24.808 103.786 25.8C103.786 26.44 103.466 27.016 102.826 27.528C102.186 28.008 101.322 28.376 100.234 28.632ZM118.547 25.224C116.979 25.224 115.651 25.928 114.563 27.336C113.475 28.744 112.931 30.536 112.931 32.712C112.931 35.528 113.475 37.768 114.563 39.432C115.651 41.096 117.011 41.928 118.643 41.928C120.435 41.928 121.987 41.208 123.299 39.768C123.331 36.664 123.459 32.536 123.683 27.384C122.275 25.944 120.563 25.224 118.547 25.224ZM117.491 45.48C114.803 45.48 112.499 44.36 110.579 42.12C108.659 39.848 107.699 37.016 107.699 33.624C107.699 29.944 108.755 27.048 110.867 24.936C112.979 22.792 115.619 21.72 118.787 21.72C122.627 21.72 125.987 22.824 128.867 25.032C128.451 29.32 128.243 35.608 128.243 43.896C128.243 50.84 128.563 55.096 129.203 56.664C128.339 56.952 127.443 57.096 126.515 57.096C125.203 57.096 124.323 56.872 123.875 56.424C123.427 55.976 123.203 55.352 123.203 54.552C123.203 49.848 123.235 46.168 123.299 43.512C121.635 44.824 119.699 45.48 117.491 45.48ZM146.2 38.136C146.2 36.664 146.232 35.528 146.296 34.728C145.336 34.856 144.632 34.952 144.184 35.016C143.768 35.08 143.192 35.176 142.456 35.304C141.72 35.432 141.176 35.576 140.824 35.736C140.504 35.896 140.152 36.088 139.768 36.312C139.384 36.536 139.112 36.824 138.952 37.176C138.792 37.496 138.712 37.88 138.712 38.328C138.712 39.608 139.032 40.552 139.672 41.16C140.312 41.768 141.128 42.072 142.12 42.072C143.752 42.072 145.144 41.464 146.296 40.248C146.232 39.832 146.2 39.128 146.2 38.136ZM146.392 31.8C146.392 30.712 146.36 29.88 146.296 29.304C146.264 28.728 146.136 28.072 145.912 27.336C145.72 26.6 145.368 26.072 144.856 25.752C144.376 25.4 143.72 25.224 142.888 25.224C141.832 25.224 140.824 25.576 139.864 26.28C138.936 26.952 138.264 27.896 137.848 29.112C135 29.08 133.576 28.232 133.576 26.568C133.576 25.192 134.536 24.04 136.456 23.112C138.408 22.184 140.616 21.72 143.08 21.72C146.024 21.72 148.168 22.328 149.512 23.544C150.888 24.76 151.576 26.936 151.576 30.072C151.576 30.168 151.56 30.92 151.528 32.328C151.496 33.736 151.48 35.112 151.48 36.456C151.48 40.104 151.784 42.84 152.392 44.664C151.464 45.016 150.552 45.192 149.656 45.192C147.864 45.192 146.792 44.456 146.44 42.984C144.52 44.648 142.36 45.48 139.96 45.48C138.104 45.48 136.552 44.904 135.304 43.752C134.088 42.6 133.48 40.904 133.48 38.664C133.48 36.872 133.864 35.544 134.632 34.68C135.4 33.816 136.424 33.176 137.704 32.76C139.624 32.152 142.52 31.832 146.392 31.8ZM172.818 33.096C172.818 30.44 172.338 28.472 171.378 27.192C170.45 25.88 169.282 25.224 167.874 25.224C166.018 25.224 164.29 26.024 162.69 27.624C162.722 29.544 162.738 31.672 162.738 34.008C162.738 36.184 162.69 38.056 162.594 39.624C164.13 41.16 165.826 41.928 167.682 41.928C169.41 41.928 170.69 41.064 171.522 39.336C172.386 37.608 172.818 35.528 172.818 33.096ZM169.602 21.72C172.098 21.72 174.13 22.664 175.698 24.552C177.266 26.408 178.05 29.208 178.05 32.952C178.05 36.472 177.122 39.448 175.266 41.88C173.41 44.28 170.738 45.48 167.25 45.48C163.442 45.48 160.178 44.36 157.458 42.12C157.682 40.232 157.794 36.824 157.794 31.896C157.794 29.048 157.714 24.92 157.554 19.512C157.394 14.072 157.218 10.744 157.026 9.528C157.634 9.4 158.482 9.336 159.57 9.336C161.81 9.336 162.93 10.2 162.93 11.928C162.93 12.312 162.882 13.704 162.786 16.104C162.69 18.504 162.642 21.208 162.642 24.216C164.69 22.552 167.01 21.72 169.602 21.72ZM194.2 38.136C194.2 36.664 194.232 35.528 194.296 34.728C193.336 34.856 192.632 34.952 192.184 35.016C191.768 35.08 191.192 35.176 190.456 35.304C189.72 35.432 189.176 35.576 188.824 35.736C188.504 35.896 188.152 36.088 187.768 36.312C187.384 36.536 187.112 36.824 186.952 37.176C186.792 37.496 186.712 37.88 186.712 38.328C186.712 39.608 187.032 40.552 187.672 41.16C188.312 41.768 189.128 42.072 190.12 42.072C191.752 42.072 193.144 41.464 194.296 40.248C194.232 39.832 194.2 39.128 194.2 38.136ZM194.392 31.8C194.392 30.712 194.36 29.88 194.296 29.304C194.264 28.728 194.136 28.072 193.912 27.336C193.72 26.6 193.368 26.072 192.856 25.752C192.376 25.4 191.72 25.224 190.888 25.224C189.832 25.224 188.824 25.576 187.864 26.28C186.936 26.952 186.264 27.896 185.848 29.112C183 29.08 181.576 28.232 181.576 26.568C181.576 25.192 182.536 24.04 184.456 23.112C186.408 22.184 188.616 21.72 191.08 21.72C194.024 21.72 196.168 22.328 197.512 23.544C198.888 24.76 199.576 26.936 199.576 30.072C199.576 30.168 199.56 30.92 199.528 32.328C199.496 33.736 199.48 35.112 199.48 36.456C199.48 40.104 199.784 42.84 200.392 44.664C199.464 45.016 198.552 45.192 197.656 45.192C195.864 45.192 194.792 44.456 194.44 42.984C192.52 44.648 190.36 45.48 187.96 45.48C186.104 45.48 184.552 44.904 183.304 43.752C182.088 42.6 181.48 40.904 181.48 38.664C181.48 36.872 181.864 35.544 182.632 34.68C183.4 33.816 184.424 33.176 185.704 32.76C187.624 32.152 190.52 31.832 194.392 31.8ZM207.522 22.056C208.674 22.056 209.49 22.264 209.97 22.68C210.482 23.096 210.738 23.752 210.738 24.648V25.224C212.594 22.888 214.402 21.72 216.162 21.72C218.018 21.72 218.946 22.392 218.946 23.736C218.946 24.632 218.37 25.8 217.218 27.24C216.546 26.664 215.794 26.376 214.962 26.376C213.33 26.376 211.858 27.256 210.546 29.016C210.45 31.064 210.402 33.144 210.402 35.256C210.402 39.448 210.834 42.552 211.698 44.568C210.834 44.984 209.89 45.192 208.866 45.192C207.49 45.192 206.562 44.888 206.082 44.28C205.602 43.672 205.362 42.696 205.362 41.352C205.362 40.968 205.378 39.88 205.41 38.088C205.442 36.296 205.458 34.888 205.458 33.864C205.458 28.52 205.314 24.664 205.026 22.296C205.954 22.136 206.786 22.056 207.522 22.056Z" fill="black"/>
</svg>
