<svg xmlns="http://www.w3.org/2000/svg" version="1.1" xmlns:xlink="http://www.w3.org/1999/xlink" xmlns:svgjs="http://svgjs.com/svgjs" width="1000" height="1000"><rect width="1000" height="1000" rx="500" ry="500" fill="#ffffff"></rect><g transform="matrix(10.81081081081081,0,0,10.81081081081081,104.90527441694928,104.7577627027357)"><svg xmlns="http://www.w3.org/2000/svg" version="1.1" xmlns:xlink="http://www.w3.org/1999/xlink" xmlns:svgjs="http://svgjs.com/svgjs" width="74" height="74"><svg width="74" height="74" viewBox="0 0 74 74" fill="none" xmlns="http://www.w3.org/2000/svg">
<path d="M58.7348 36.5151C59.5484 37.5999 60.2574 38.7594 60.8524 39.9779C61.8337 42.0416 62.5615 44.2166 63.0198 46.4553C63.3935 48.0995 63.6675 49.7687 63.9914 51.4378C64.0029 51.5538 64.0029 51.6706 63.9914 51.7866C64.0131 52.0146 63.9555 52.2431 63.8285 52.4337C63.7014 52.6243 63.5126 52.7653 63.2938 52.833L58.4856 54.6018C56.7296 55.1854 54.9179 55.5861 53.0796 55.7976C52.1329 55.7976 51.2111 55.7976 50.2644 55.9221C49.7911 55.9221 49.2928 55.9221 48.8195 55.9221C48.3919 55.9632 47.9806 56.107 47.6206 56.3412C47.2606 56.5754 46.9625 56.8932 46.7517 57.2674C46.4777 57.691 46.2534 58.1145 46.0043 58.5629C44.8072 60.6945 43.2765 62.6205 41.4702 64.2679C40.1249 65.4887 38.7298 66.6097 37.3346 67.7807C37.1285 67.9423 36.8741 68.0301 36.6122 68.0301C36.3502 68.0301 36.0958 67.9423 35.8897 67.7807C34.1491 66.43 32.4856 64.9828 30.9071 63.4458C29.162 61.8176 27.6826 59.9262 26.5225 57.8404C26.2788 57.3261 25.931 56.868 25.5011 56.4951C24.8866 56.0548 24.1375 55.8433 23.3835 55.8972H21.5399C19.3746 55.8179 17.2297 55.4493 15.1622 54.8011C13.2938 54.253 11.4502 53.5554 9.63158 52.833C9.3777 52.7233 9.17754 52.5177 9.07484 52.2609C8.97214 52.0042 8.97525 51.7172 9.0835 51.4627C9.50737 48.4798 10.1824 45.5379 11.1014 42.6685C11.7798 40.5363 12.7795 38.5201 14.0661 36.6894C14.0661 36.6894 14.2155 36.4901 14.0661 36.3656C12.2751 33.8703 10.981 31.0538 10.2544 28.0696C9.73123 25.9271 9.33262 23.7348 9.0835 21.5674C9.03812 21.43 9.0217 21.2848 9.03527 21.1409C9.04884 20.9969 9.0921 20.8573 9.16233 20.7309C9.23255 20.6045 9.32822 20.494 9.44329 20.4064C9.55836 20.3188 9.69033 20.2561 9.83088 20.2221C12.1538 19.2057 14.5528 18.3727 17.0058 17.7308C19.001 17.2341 21.0539 17.0079 23.1094 17.0581C23.5648 17.1077 24.0242 17.1077 24.4796 17.0581C24.838 17.0017 25.1798 16.8677 25.481 16.6655C25.7822 16.4632 26.0356 16.1976 26.2235 15.8872C26.5474 15.389 26.8214 14.8658 27.1204 14.3426C28.2452 12.4191 29.6283 10.6589 31.231 9.11094C32.6727 7.73635 34.1862 6.43906 35.7651 5.22453C35.9684 5.07853 36.2124 5 36.4627 5C36.713 5 36.957 5.07853 37.1603 5.22453C39.3524 6.88648 41.4023 8.72809 43.2888 10.7303C44.5087 12.0471 45.5705 13.5019 46.4527 15.0651C46.702 15.5354 47.0119 15.971 47.3745 16.3606C47.675 16.6367 48.0292 16.8478 48.415 16.9807C48.8008 17.1136 49.2099 17.1654 49.6167 17.1329H51.236C53.4586 17.21 55.6614 17.5785 57.7881 18.229C59.6565 18.7771 61.4503 19.4498 63.244 20.1722C63.5095 20.2783 63.7245 20.4819 63.8449 20.7412C63.9653 21.0005 63.982 21.2961 63.8917 21.5674C63.5264 23.9089 63.0358 26.2291 62.4219 28.518C61.7339 31.3166 60.5437 33.9671 58.9092 36.3407L58.7348 36.5151ZM36.4876 66.0617L37.1852 65.389L42.1677 60.4065C43.0725 59.48 43.8667 58.4517 44.5345 57.3422C45.0966 56.3746 45.5003 55.3233 45.7303 54.2281C45.7421 54.1084 45.7786 53.9925 45.8374 53.8876C45.8963 53.7827 45.9762 53.6911 46.0721 53.6185C46.168 53.546 46.2779 53.4941 46.3949 53.4661C46.5118 53.4381 46.6333 53.4346 46.7517 53.4558C46.9009 53.4438 47.0509 53.4438 47.2001 53.4558C48.0223 53.5803 48.8693 53.7796 49.6914 53.8544C50.8753 53.9172 52.0625 53.842 53.229 53.6302C55.9379 53.1481 58.5977 52.4226 61.1762 51.4627C61.3033 51.4323 61.4225 51.3751 61.5258 51.295C61.6291 51.215 61.7142 51.1139 61.7754 50.9985C61.8367 50.883 61.8727 50.7559 61.881 50.6255C61.8894 50.4951 61.87 50.3643 61.824 50.242C61.6496 49.4199 61.4503 48.5978 61.2759 47.7507C60.8902 45.8302 60.3657 43.9401 59.7064 42.0955C59.0761 40.2004 57.9896 38.4894 56.5424 37.113C56.4243 37.0331 56.3275 36.9255 56.2606 36.7995C56.1937 36.6736 56.1587 36.5331 56.1587 36.3905C56.1587 36.2479 56.1937 36.1074 56.2606 35.9815C56.3275 35.8555 56.4243 35.7479 56.5424 35.668C56.966 35.2196 57.3895 34.7961 57.7632 34.3227C58.7311 32.9886 59.4796 31.5084 59.9804 29.9381C60.7289 27.4799 61.3525 24.9854 61.8489 22.4642C61.8688 22.2686 61.8201 22.072 61.711 21.9084C61.6019 21.7448 61.4393 21.6242 61.251 21.5674L60.5285 21.3182C57.757 20.2234 54.8624 19.4705 51.9087 19.0761C50.9241 18.9556 49.9286 18.9556 48.944 19.0761L47.0507 19.4498C46.9158 19.4962 46.7719 19.5108 46.6305 19.4922C46.489 19.4737 46.3538 19.4225 46.2355 19.3428C46.1171 19.2631 46.0189 19.1571 45.9485 19.033C45.8782 18.9088 45.8376 18.7701 45.8299 18.6276C45.6166 17.6717 45.2729 16.7496 44.8085 15.8872C43.9999 14.4941 43.0022 13.2198 41.8439 12.1005C40.374 10.6057 38.8792 9.16076 37.3845 7.71582C37.1104 7.41686 36.8115 7.16774 36.5374 6.89369L36.3132 7.06808L34.4448 8.88672C32.95 10.3317 31.4054 11.7766 30.0352 13.371C28.9705 14.5099 28.1258 15.836 27.5439 17.2823C27.3765 17.7559 27.2352 18.2383 27.1204 18.7273C27.0893 18.9499 26.9735 19.1518 26.7971 19.2911C26.6207 19.4303 26.3974 19.4961 26.1737 19.4747C26.0086 19.5008 25.8405 19.5008 25.6754 19.4747C24.0479 19.0645 22.3578 18.9631 20.6929 19.1757C18.9545 19.384 17.2374 19.7424 15.5608 20.247C14.3401 20.6207 13.0695 21.0193 11.9236 21.4428C11.7837 21.4623 11.6501 21.5136 11.5332 21.5929C11.4163 21.6722 11.3192 21.7773 11.2494 21.9001C11.1796 22.0229 11.1389 22.1601 11.1305 22.3011C11.1221 22.4421 11.1463 22.5832 11.2011 22.7133C11.3755 23.6351 11.5997 24.5569 11.799 25.4787C12.1939 27.5403 12.7606 29.5653 13.4931 31.5325C14.174 33.1831 15.2219 34.6571 16.5573 35.8424C16.661 35.924 16.7448 36.0281 16.8024 36.1467C16.86 36.2654 16.8899 36.3956 16.8899 36.5275C16.8899 36.6594 16.86 36.7896 16.8024 36.9083C16.7448 37.027 16.661 37.131 16.5573 37.2126C16.1811 37.5675 15.8235 37.9417 15.4861 38.3337C14.4487 39.6574 13.6633 41.1606 13.1692 42.7682C12.3615 45.293 11.7043 47.8635 11.2011 50.4662C11.1401 50.65 11.1439 50.8492 11.2119 51.0305C11.2799 51.2118 11.408 51.3644 11.5748 51.4627H11.8986L13.0446 51.8614C15.772 52.9297 18.6284 53.6333 21.5399 53.954C22.4325 54.0785 23.338 54.0785 24.2305 53.954L25.8997 53.6302C26.0312 53.5835 26.1717 53.5681 26.3102 53.5852C26.4487 53.6024 26.5813 53.6516 26.6974 53.729C26.8135 53.8065 26.9099 53.9099 26.979 54.0311C27.0482 54.1523 27.088 54.288 27.0955 54.4274C27.3068 55.2937 27.6248 56.1306 28.0422 56.9187C28.793 58.3017 29.7507 59.5619 30.8822 60.6556C32.3272 62.1254 33.797 63.5704 35.2669 65.0153L36.4876 66.0617Z" fill="black" stroke="black" stroke-miterlimit="10"></path>
<path d="M45.1323 49.395H44.5095C44.3155 49.3581 44.1147 49.3903 43.9418 49.4858C43.7689 49.5813 43.6349 49.7343 43.5628 49.9182C43.1871 50.7059 42.7005 51.4358 42.1179 52.0856C40.8775 53.4259 39.1796 54.2526 37.3595 54.4025C36.0059 54.5774 34.6301 54.4235 33.3486 53.954C31.7358 53.2481 30.4159 52.0074 29.6116 50.4413L29.4123 50.0427C29.3442 49.8492 29.2082 49.687 29.0295 49.5862C28.8508 49.4854 28.6416 49.4528 28.4407 49.4946C27.6876 49.5822 26.9268 49.5822 26.1737 49.4946C24.2926 49.1387 22.6277 48.0556 21.5399 46.4802C20.6432 45.3211 20.0675 43.9463 19.8707 42.4941C19.6795 41.1599 19.8876 39.799 20.4686 38.5828C20.7667 37.9666 21.0994 37.3677 21.4652 36.7891C21.4996 36.7421 21.5181 36.6854 21.5181 36.6272C21.5181 36.5689 21.4996 36.5122 21.4652 36.4652C20.7588 35.4761 20.2512 34.3593 19.9704 33.1767C19.6476 31.7877 19.7696 30.3322 20.3192 29.0163C20.8357 27.6305 21.6924 26.3969 22.8104 25.4288C24.1541 24.2987 25.8633 23.6965 27.6186 23.7348H28.4906C28.6877 23.7701 28.8909 23.7344 29.0643 23.634C29.2376 23.5337 29.3697 23.3752 29.4373 23.1867C29.8129 22.393 30.3087 21.6619 30.9071 21.0193C32.1334 19.6776 33.8275 18.8572 35.6406 18.7273C37.2482 18.5003 38.8861 18.8029 40.3065 19.5895C41.7269 20.3761 42.8524 21.6039 43.513 23.087L43.6625 23.3611C43.7321 23.4824 43.8344 23.5818 43.9577 23.6478C44.0811 23.7139 44.2205 23.744 44.36 23.7348H45.6057C46.792 23.7402 47.9585 24.0388 49.0017 24.6038C50.0448 25.1688 50.9321 25.9828 51.5848 26.9734C52.365 28.0366 52.8932 29.2634 53.1294 30.5609C53.3525 32.0513 53.1088 33.5742 52.4318 34.9206C52.1827 35.4438 51.8588 35.967 51.5599 36.4652C51.2609 36.9635 51.5599 36.6645 51.5599 36.7891C52.2592 37.7883 52.7584 38.9135 53.0297 40.1025C53.3349 41.4189 53.2483 42.7958 52.7806 44.0636C52.2542 45.5594 51.3331 46.8851 50.1149 47.9002C48.7006 49.0064 46.922 49.54 45.1323 49.395ZM51.1862 31.5325C51.1862 31.5325 51.1862 31.1339 51.1862 30.8598C51.1567 30.6336 51.1151 30.409 51.0616 30.1872C50.7191 28.7942 49.8791 27.5745 48.6999 26.7578C47.5206 25.941 46.0835 25.5836 44.659 25.7527L43.3137 25.9022C43.1415 25.9161 42.9691 25.8785 42.8183 25.7942C42.6675 25.71 42.5451 25.5828 42.4667 25.4288C42.3216 25.1646 42.1967 24.8898 42.093 24.6067C41.7881 23.8381 41.3495 23.1296 40.7975 22.514C40.1645 21.8042 39.3613 21.2672 38.4635 20.9534C37.5657 20.6396 36.6028 20.5594 35.6655 20.7203C34.6265 20.8852 33.6508 21.3259 32.8402 21.9963C32.0295 22.6668 31.4136 23.5424 31.0566 24.532C31.0566 24.806 30.8075 25.105 30.658 25.379C30.5757 25.5441 30.447 25.6816 30.2877 25.7745C30.1283 25.8675 29.9453 25.9118 29.7611 25.9022H29.2878C28.5687 25.8029 27.8394 25.8029 27.1204 25.9022C25.7297 26.0446 24.4334 26.6717 23.4587 27.6738C22.484 28.6758 21.8929 29.9889 21.789 31.383C21.7533 32.7791 22.2221 34.1412 23.1094 35.2196L23.7571 36.1165C23.8296 36.2368 23.8679 36.3746 23.8679 36.5151C23.8679 36.6555 23.8296 36.7933 23.7571 36.9137C23.6137 37.1476 23.4556 37.3723 23.2838 37.5863C22.5381 38.3988 22.0427 39.4092 21.8571 40.4963C21.6715 41.5834 21.8036 42.701 22.2374 43.7149C22.7017 44.9301 23.5606 45.9541 24.6765 46.6227C25.7923 47.2914 27.1004 47.5658 28.3909 47.402L29.6615 47.2525C29.8566 47.2346 30.0524 47.2778 30.222 47.376C30.3916 47.4741 30.5265 47.6225 30.6082 47.8006L30.9071 48.3985C31.1492 49.0576 31.4848 49.6785 31.9036 50.242C32.622 51.1817 33.6126 51.8772 34.7404 52.2338C35.8682 52.5904 37.0785 52.5909 38.2066 52.2351C39.0809 51.9517 39.8789 51.4722 40.5396 50.8331C41.2002 50.1941 41.706 49.4124 42.0182 48.548C42.1174 48.271 42.2425 48.0041 42.3919 47.7507C42.471 47.5902 42.5962 47.4569 42.7516 47.3681C42.907 47.2793 43.0854 47.2391 43.2639 47.2525H43.7372C44.5618 47.3919 45.4039 47.3919 46.2285 47.2525C47.2595 47.0633 48.222 46.6042 49.0178 45.9219C49.8136 45.2396 50.4142 44.3585 50.7586 43.3685C51.103 42.3784 51.1787 41.3148 50.9781 40.2859C50.7775 39.257 50.3077 38.2997 49.6167 37.5116C49.4447 37.289 49.2866 37.056 49.1433 36.814C49.0583 36.6985 49.0125 36.5588 49.0125 36.4154C49.0125 36.272 49.0583 36.1323 49.1433 36.0168C49.2887 35.7486 49.4642 35.4978 49.6665 35.2694C50.5736 34.2269 51.1082 32.9122 51.1862 31.5325Z" fill="black" stroke="black" stroke-width="0.75" stroke-miterlimit="10"></path>
<path d="M47.8728 31.8564C47.8729 32.7089 47.563 33.5323 47.0008 34.1733C46.7461 34.4749 46.5208 34.8002 46.3282 35.1448C46.0898 35.5577 45.9644 36.0259 45.9644 36.5026C45.9644 36.9793 46.0898 37.4475 46.3282 37.8603C46.5152 38.1869 46.732 38.4955 46.9759 38.7821C47.5714 39.434 47.8912 40.2913 47.8679 41.174C47.8447 42.0566 47.4803 42.8959 46.8513 43.5156C46.5607 43.8477 46.1927 44.1032 45.78 44.2597C45.3673 44.4161 44.9224 44.4685 44.4846 44.4124C43.9365 44.4124 43.3884 44.2629 42.8404 44.2629C42.3058 44.2372 41.7742 44.3553 41.3009 44.6051C40.8277 44.8549 40.4301 45.2271 40.1498 45.683C39.9277 46.0273 39.744 46.3949 39.6017 46.7791C39.4326 47.2971 39.1437 47.7678 38.7584 48.1531C38.3731 48.5384 37.9024 48.8273 37.3844 48.9964C36.6495 49.2001 35.8659 49.1337 35.1757 48.8092C34.4855 48.4847 33.9345 47.9235 33.6226 47.2276C33.6226 47.0034 33.4482 46.7542 33.3486 46.53C33.1019 45.9133 32.7085 45.366 32.2026 44.9356C31.5494 44.4142 30.7165 44.1724 29.8857 44.2629L28.5404 44.4124C28.0677 44.4679 27.5887 44.3981 27.1515 44.21C26.7142 44.022 26.3341 43.7224 26.0491 43.3412C25.7007 42.9299 25.4502 42.4449 25.3164 41.9227C25.1827 41.4006 25.1691 40.8549 25.2768 40.3267C25.4067 39.7346 25.7002 39.1908 26.1239 38.7572C26.6412 38.1962 26.9795 37.4936 27.0954 36.7393C27.1408 36.2118 27.0281 35.6827 26.7716 35.2196C26.5763 34.8766 26.3512 34.5515 26.0989 34.248C25.8013 33.9369 25.5686 33.5695 25.4147 33.1674C25.2607 32.7653 25.1884 32.3365 25.2021 31.9062C25.2088 31.3475 25.3451 30.798 25.6001 30.3009C25.8552 29.8037 26.2221 29.3725 26.6719 29.0412C27.1967 28.6608 27.8491 28.5 28.4906 28.5928L29.786 28.7423C30.4255 28.8286 31.076 28.7173 31.6504 28.4234C32.2248 28.1296 32.6957 27.6671 32.9998 27.098C33.1743 26.7863 33.3242 26.4614 33.4482 26.1264C33.6238 25.6037 33.928 25.1335 34.3329 24.7591C34.7378 24.3847 35.2303 24.1181 35.7651 23.9839C36.4446 23.8208 37.159 23.889 37.7953 24.1778C38.4316 24.4666 38.9533 24.9595 39.2778 25.5783L39.5768 26.251C39.7949 26.8924 40.162 27.473 40.648 27.945C41.0367 28.2811 41.4961 28.5251 41.9922 28.6588C42.4883 28.7925 43.0081 28.8125 43.513 28.7173C44.0189 28.6803 44.5268 28.6803 45.0327 28.7173C45.4025 28.7324 45.7643 28.8296 46.0918 29.002C46.4193 29.1744 46.7043 29.4175 46.9261 29.7139C47.4531 30.3145 47.7835 31.0622 47.8728 31.8564ZM28.4906 30.3865H28.0421C27.8348 30.4549 27.6441 30.5659 27.4821 30.7122C27.3201 30.8585 27.1904 31.037 27.1013 31.2363C27.0123 31.4356 26.9657 31.6513 26.9647 31.8696C26.9637 32.0879 27.0082 32.304 27.0954 32.5041C27.2055 32.6963 27.3304 32.8795 27.4691 33.0522C27.7681 33.5255 28.1169 33.9739 28.3909 34.4971C28.8004 35.2591 28.9574 36.1314 28.8393 36.9884C28.663 38.0538 28.1878 39.0473 27.4691 39.8534C27.3304 40.026 27.2055 40.2093 27.0954 40.4015C27.0042 40.6011 26.9565 40.8178 26.9555 41.0373C26.9546 41.2568 27.0004 41.4739 27.09 41.6743C27.1796 41.8747 27.3108 42.0537 27.475 42.1993C27.6392 42.345 27.8325 42.454 28.0421 42.519C28.3808 42.5688 28.7249 42.5688 29.0636 42.519C29.7512 42.3729 30.4615 42.3682 31.151 42.5052C31.8406 42.6423 32.495 42.9182 33.0745 43.3163C33.9941 43.9925 34.6887 44.9301 35.0676 46.0068C35.15 46.2425 35.2587 46.4681 35.3914 46.6795C35.5138 46.8493 35.6747 46.9875 35.8609 47.0829C36.0472 47.1782 36.2534 47.228 36.4627 47.228C36.6719 47.228 36.8782 47.1782 37.0644 47.0829C37.2507 46.9875 37.4116 46.8493 37.5339 46.6795C37.7013 46.4236 37.8352 46.1473 37.9325 45.8574C38.1751 45.1679 38.5567 44.5357 39.0539 44C39.551 43.4643 40.153 43.0365 40.8224 42.7433C41.8674 42.3262 43.015 42.2392 44.1109 42.4941C44.4875 42.6029 44.8917 42.5594 45.2366 42.3731C45.5814 42.1867 45.8392 41.8723 45.9545 41.4976C46.0232 41.2292 46.0251 40.9481 45.96 40.6788C45.8948 40.4095 45.7646 40.1603 45.5808 39.953C45.2704 39.575 44.9874 39.1754 44.7337 38.7572C44.3799 38.1747 44.1685 37.5169 44.1165 36.8373C44.0646 36.1577 44.1736 35.4754 44.4348 34.8459C44.7068 34.1957 45.0764 33.5908 45.5309 33.0522C45.6832 32.8716 45.8091 32.6703 45.9046 32.4543C45.9827 32.2587 46.0193 32.049 46.012 31.8386C46.0047 31.6281 45.9538 31.4214 45.8624 31.2317C45.7711 31.042 45.6413 30.8733 45.4813 30.7364C45.3213 30.5994 45.1346 30.4973 44.933 30.4363C44.587 30.3743 44.2327 30.3743 43.8867 30.4363C43.173 30.5846 42.4361 30.5815 41.7237 30.427C41.0113 30.2725 40.3393 29.9701 39.7512 29.5395C38.8706 28.847 38.2123 27.9115 37.8578 26.8489C37.8004 26.6556 37.7165 26.4712 37.6087 26.3008C37.486 26.1158 37.3194 25.964 37.1237 25.8591C36.9281 25.7541 36.7096 25.6991 36.4876 25.6991C36.2656 25.6991 36.047 25.7541 35.8514 25.8591C35.6558 25.964 35.4892 26.1158 35.3665 26.3008C35.2462 26.5152 35.1461 26.7404 35.0676 26.9734C34.7083 28.1258 33.9544 29.1146 32.9384 29.7662C31.9223 30.4177 30.7091 30.6903 29.512 30.536L28.4906 30.3865Z" fill="black" stroke="black" stroke-width="0.25" stroke-miterlimit="10"></path>
<path d="M41.6197 36.515C41.5824 37.6461 41.1706 38.7327 40.4488 39.6042C39.7029 40.5664 38.6306 41.2222 37.4343 41.4478C36.5726 41.6192 35.6809 41.5596 34.8496 41.2752C34.0184 40.9909 33.2771 40.4917 32.7009 39.8284C31.8488 38.9323 31.3604 37.7513 31.3307 36.515C31.3443 35.6278 31.6123 34.7631 32.103 34.0238C32.5247 33.2921 33.1255 32.6796 33.8489 32.2438C34.5723 31.808 35.3946 31.5632 36.2385 31.5325C37.039 31.492 37.8374 31.6453 38.566 31.9792C39.2947 32.3132 39.932 32.818 40.4239 33.4508C41.1028 34.2315 41.5132 35.2096 41.5948 36.241C41.6126 36.3312 41.6209 36.4231 41.6197 36.515ZM36.6371 39.5793C37.2032 39.5292 37.7458 39.3298 38.2097 39.0016C38.6736 38.6733 39.0422 38.228 39.2779 37.7109C39.5108 37.321 39.6154 36.8679 39.5768 36.4154C39.527 35.7997 39.3007 35.2114 38.9251 34.721C38.5496 34.2306 38.0406 33.8587 37.4592 33.6501C36.9348 33.4349 36.358 33.3817 35.803 33.4971C35.248 33.6125 34.7403 33.8914 34.3451 34.2978C33.9793 34.5949 33.6923 34.9778 33.5098 35.4123C33.3273 35.8469 33.2548 36.3198 33.2988 36.7891C33.431 37.5851 33.847 38.3063 34.4699 38.8193C35.0927 39.3323 35.8803 39.6023 36.6869 39.5793H36.6371Z" fill="black" stroke="black" stroke-width="0.5" stroke-miterlimit="10"></path>
</svg></svg></g></svg>